# xmcd CD database file
# Copyright (C) 1996 Ti Kan
#
# Track frame offsets:
# 	150
# 	16590
# 	33902
# 	48685
# 	67695
# 	82712
# 	95562
# 	109655
# 	125592
# 	140252
#
# Disc length: 2094 seconds
#
# Revision: 1
# Processed by: cddbd v1.4b41PL1 Copyright (c) Steve Scherf et al.
# Submitted via: DiscPlay 3.3.1
#
DISCID=71082c0a
DTITLE=Billy Montana - No Yesterday
DYEAR=1900
DGENRE=
TTITLE0=Didn't Have You
TTITLE1=A Clean Mind and Dirty Hands
TTITLE2=Everything She Needs
TTITLE3=Rain Through the Roof
TTITLE4=No Yesterday
TTITLE5=Savin' it Up For Saturday Night
TTITLE6=Angelia
TTITLE7=Brand New Me
TTITLE8=My Own Worst Enemy
TTITLE9=Ready and Waiting
EXTD=
EXTT0=
EXTT1=
EXTT2=
EXTT3=
EXTT4=
EXTT5=
EXTT6=
EXTT7=
EXTT8=
EXTT9=
PLAYORDER=
